<?xml version="1.0" standalone="no"?>
<svg xmlns:xlink="http://www.w3.org/1999/xlink" id="wave" style="transform:rotate(0deg); transition: 0.3s" viewBox="0 0 1440 100" version="1.1" xmlns="http://www.w3.org/2000/svg"><defs><linearGradient id="sw-gradient-0" x1="0" x2="0" y1="1" y2="0"><stop stop-color="rgba(255, 232, 180, 1)" offset="0%"/><stop stop-color="rgba(255, 232, 180, 1)" offset="100%"/></linearGradient></defs><path style="transform:translate(0, 0px); opacity:1" fill="url(#sw-gradient-0)" d="M0,50L48,53.3C96,57,192,63,288,63.3C384,63,480,57,576,53.3C672,50,768,50,864,50C960,50,1056,50,1152,41.7C1248,33,1344,17,1440,8.3C1536,0,1632,0,1728,1.7C1824,3,1920,7,2016,16.7C2112,27,2208,43,2304,55C2400,67,2496,73,2592,71.7C2688,70,2784,60,2880,51.7C2976,43,3072,37,3168,38.3C3264,40,3360,50,3456,53.3C3552,57,3648,53,3744,48.3C3840,43,3936,37,4032,43.3C4128,50,4224,70,4320,76.7C4416,83,4512,77,4608,76.7C4704,77,4800,83,4896,85C4992,87,5088,83,5184,73.3C5280,63,5376,47,5472,46.7C5568,47,5664,63,5760,63.3C5856,63,5952,47,6048,35C6144,23,6240,17,6336,11.7C6432,7,6528,3,6624,15C6720,27,6816,53,6864,66.7L6912,80L6912,100L6864,100C6816,100,6720,100,6624,100C6528,100,6432,100,6336,100C6240,100,6144,100,6048,100C5952,100,5856,100,5760,100C5664,100,5568,100,5472,100C5376,100,5280,100,5184,100C5088,100,4992,100,4896,100C4800,100,4704,100,4608,100C4512,100,4416,100,4320,100C4224,100,4128,100,4032,100C3936,100,3840,100,3744,100C3648,100,3552,100,3456,100C3360,100,3264,100,3168,100C3072,100,2976,100,2880,100C2784,100,2688,100,2592,100C2496,100,2400,100,2304,100C2208,100,2112,100,2016,100C1920,100,1824,100,1728,100C1632,100,1536,100,1440,100C1344,100,1248,100,1152,100C1056,100,960,100,864,100C768,100,672,100,576,100C480,100,384,100,288,100C192,100,96,100,48,100L0,100Z"/></svg>