<?xml version="1.0" standalone="no"?>
<svg xmlns:xlink="http://www.w3.org/1999/xlink" id="wave" style="transform:rotate(0deg); transition: 0.3s" viewBox="0 0 1440 100" version="1.1" xmlns="http://www.w3.org/2000/svg"><defs><linearGradient id="sw-gradient-0" x1="0" x2="0" y1="1" y2="0"><stop stop-color="rgba(255, 232, 180, 1)" offset="0%"/><stop stop-color="rgba(255, 232, 180, 1)" offset="100%"/></linearGradient></defs><path style="transform:translate(0, 0px); opacity:1" fill="url(#sw-gradient-0)" d="M0,50L10,53.3C20,57,40,63,60,63.3C80,63,100,57,120,53.3C140,50,160,50,180,50C200,50,220,50,240,41.7C260,33,280,17,300,8.3C320,0,340,0,360,1.7C380,3,400,7,420,16.7C440,27,460,43,480,55C500,67,520,73,540,71.7C560,70,580,60,600,51.7C620,43,640,37,660,38.3C680,40,700,50,720,53.3C740,57,760,53,780,48.3C800,43,820,37,840,43.3C860,50,880,70,900,76.7C920,83,940,77,960,76.7C980,77,1000,83,1020,85C1040,87,1060,83,1080,73.3C1100,63,1120,47,1140,46.7C1160,47,1180,63,1200,63.3C1220,63,1240,47,1260,35C1280,23,1300,17,1320,11.7C1340,7,1360,3,1380,15C1400,27,1420,53,1430,66.7L1440,80L1440,100L1430,100C1420,100,1400,100,1380,100C1360,100,1340,100,1320,100C1300,100,1280,100,1260,100C1240,100,1220,100,1200,100C1180,100,1160,100,1140,100C1120,100,1100,100,1080,100C1060,100,1040,100,1020,100C1000,100,980,100,960,100C940,100,920,100,900,100C880,100,860,100,840,100C820,100,800,100,780,100C760,100,740,100,720,100C700,100,680,100,660,100C640,100,620,100,600,100C580,100,560,100,540,100C520,100,500,100,480,100C460,100,440,100,420,100C400,100,380,100,360,100C340,100,320,100,300,100C280,100,260,100,240,100C220,100,200,100,180,100C160,100,140,100,120,100C100,100,80,100,60,100C40,100,20,100,10,100L0,100Z"/></svg>