<?xml version="1.0" standalone="no"?>
<svg xmlns:xlink="http://www.w3.org/1999/xlink" id="wave" style="transform:rotate(0deg); transition: 0.3s" viewBox="0 0 1440 100" version="1.1" xmlns="http://www.w3.org/2000/svg"><defs><linearGradient id="sw-gradient-0" x1="0" x2="0" y1="1" y2="0"><stop stop-color="rgba(255, 232, 180, 1)" offset="0%"/><stop stop-color="rgba(255, 232, 180, 1)" offset="100%"/></linearGradient></defs><path style="transform:translate(0, 0px); opacity:1" fill="url(#sw-gradient-0)" d="M0,50L17.1,53.3C34.3,57,69,63,103,63.3C137.1,63,171,57,206,53.3C240,50,274,50,309,50C342.9,50,377,50,411,41.7C445.7,33,480,17,514,8.3C548.6,0,583,0,617,1.7C651.4,3,686,7,720,16.7C754.3,27,789,43,823,55C857.1,67,891,73,926,71.7C960,70,994,60,1029,51.7C1062.9,43,1097,37,1131,38.3C1165.7,40,1200,50,1234,53.3C1268.6,57,1303,53,1337,48.3C1371.4,43,1406,37,1440,43.3C1474.3,50,1509,70,1543,76.7C1577.1,83,1611,77,1646,76.7C1680,77,1714,83,1749,85C1782.9,87,1817,83,1851,73.3C1885.7,63,1920,47,1954,46.7C1988.6,47,2023,63,2057,63.3C2091.4,63,2126,47,2160,35C2194.3,23,2229,17,2263,11.7C2297.1,7,2331,3,2366,15C2400,27,2434,53,2451,66.7L2468.6,80L2468.6,100L2451.4,100C2434.3,100,2400,100,2366,100C2331.4,100,2297,100,2263,100C2228.6,100,2194,100,2160,100C2125.7,100,2091,100,2057,100C2022.9,100,1989,100,1954,100C1920,100,1886,100,1851,100C1817.1,100,1783,100,1749,100C1714.3,100,1680,100,1646,100C1611.4,100,1577,100,1543,100C1508.6,100,1474,100,1440,100C1405.7,100,1371,100,1337,100C1302.9,100,1269,100,1234,100C1200,100,1166,100,1131,100C1097.1,100,1063,100,1029,100C994.3,100,960,100,926,100C891.4,100,857,100,823,100C788.6,100,754,100,720,100C685.7,100,651,100,617,100C582.9,100,549,100,514,100C480,100,446,100,411,100C377.1,100,343,100,309,100C274.3,100,240,100,206,100C171.4,100,137,100,103,100C68.6,100,34,100,17,100L0,100Z"/></svg>