<?xml version="1.0" standalone="no"?>
<svg xmlns:xlink="http://www.w3.org/1999/xlink" id="wave" style="transform:rotate(0deg); transition: 0.3s" viewBox="0 0 1440 160" version="1.1" xmlns="http://www.w3.org/2000/svg"><defs><linearGradient id="sw-gradient-0" x1="0" x2="0" y1="1" y2="0"><stop stop-color="rgba(255, 232, 180, 1)" offset="0%"/><stop stop-color="rgba(255, 232, 180, 1)" offset="100%"/></linearGradient></defs><path style="transform:translate(0, 0px); opacity:1" fill="url(#sw-gradient-0)" d="M0,80L48,85.3C96,91,192,101,288,101.3C384,101,480,91,576,85.3C672,80,768,80,864,80C960,80,1056,80,1152,66.7C1248,53,1344,27,1440,13.3C1536,0,1632,0,1728,2.7C1824,5,1920,11,2016,26.7C2112,43,2208,69,2304,88C2400,107,2496,117,2592,114.7C2688,112,2784,96,2880,82.7C2976,69,3072,59,3168,61.3C3264,64,3360,80,3456,85.3C3552,91,3648,85,3744,77.3C3840,69,3936,59,4032,69.3C4128,80,4224,112,4320,122.7C4416,133,4512,123,4608,122.7C4704,123,4800,133,4896,136C4992,139,5088,133,5184,117.3C5280,101,5376,75,5472,74.7C5568,75,5664,101,5760,101.3C5856,101,5952,75,6048,56C6144,37,6240,27,6336,18.7C6432,11,6528,5,6624,24C6720,43,6816,85,6864,106.7L6912,128L6912,160L6864,160C6816,160,6720,160,6624,160C6528,160,6432,160,6336,160C6240,160,6144,160,6048,160C5952,160,5856,160,5760,160C5664,160,5568,160,5472,160C5376,160,5280,160,5184,160C5088,160,4992,160,4896,160C4800,160,4704,160,4608,160C4512,160,4416,160,4320,160C4224,160,4128,160,4032,160C3936,160,3840,160,3744,160C3648,160,3552,160,3456,160C3360,160,3264,160,3168,160C3072,160,2976,160,2880,160C2784,160,2688,160,2592,160C2496,160,2400,160,2304,160C2208,160,2112,160,2016,160C1920,160,1824,160,1728,160C1632,160,1536,160,1440,160C1344,160,1248,160,1152,160C1056,160,960,160,864,160C768,160,672,160,576,160C480,160,384,160,288,160C192,160,96,160,48,160L0,160Z"/></svg>